<svg xmlns="http://www.w3.org/2000/svg" viewBox="0 0 32 32" fill="none">
  <!-- Outer square, navy -->
  <rect width="32" height="32" rx="6" fill="#0F2942"/>
  <!-- Bold "B" letterform — two stacked half-ovals on a vertical stem -->
  <!-- Vertical stem -->
  <rect x="8" y="6" width="3.5" height="20" rx="1" fill="#F7F4EF"/>
  <!-- Upper bump -->
  <path d="M11.5 6 H17 Q22 6 22 11.5 Q22 17 17 17 H11.5 Z" fill="#F7F4EF"/>
  <!-- Upper bump inner cutout (makes it a ring) -->
  <path d="M12.5 8 H16.5 Q19.5 8 19.5 11.5 Q19.5 15 16.5 15 H12.5 Z" fill="#0F2942"/>
  <!-- Lower bump (wider) -->
  <path d="M11.5 17 H17.5 Q23 17 23 22 Q23 26 17.5 26 H11.5 Z" fill="#F7F4EF"/>
  <!-- Lower bump inner cutout -->
  <path d="M12.5 19 H17 Q20.5 19 20.5 22 Q20.5 24.5 17 24.5 H12.5 Z" fill="#0F2942"/>
  <!-- Saffron accent line at bottom -->
  <rect x="8" y="28.5" width="16" height="2" rx="1" fill="#C56B2E"/>
</svg>